<svg id="svg" version="1.1" xmlns="http://www.w3.org/2000/svg" xmlns:xlink="http://www.w3.org/1999/xlink" width="400" height="394" viewBox="0, 0, 400,394"><g id="svgg"><path id="path0" d="M383.494 11.527 C 383.451 12.178,381.469 12.217,347.760 12.217 C 327.120 12.217,312.163 12.364,312.288 12.566 C 312.600 13.072,311.426 13.285,309.109 13.144 C 307.118 13.022,307.046 13.058,304.774 15.278 C 303.503 16.519,302.330 17.491,302.167 17.437 C 302.005 17.384,301.872 17.606,301.872 17.931 C 301.872 18.256,301.702 18.522,301.494 18.522 C 301.254 18.522,301.146 31.178,301.198 53.005 C 301.244 71.970,301.167 87.488,301.029 87.488 C 300.891 87.488,300.802 87.798,300.832 88.177 C 300.866 88.604,300.648 88.828,300.261 88.766 C 299.916 88.710,299.305 89.028,298.903 89.472 C 298.264 90.179,298.256 90.248,298.840 90.024 C 299.837 89.641,299.646 90.065,298.474 90.833 C 297.905 91.206,297.578 91.287,297.746 91.014 C 297.951 90.683,297.893 90.617,297.571 90.816 C 297.306 90.980,297.183 91.360,297.298 91.659 C 297.498 92.179,296.102 93.268,295.468 93.089 C 295.305 93.043,295.172 93.163,295.172 93.355 C 295.172 93.821,293.871 93.702,293.504 93.202 C 293.319 92.951,293.212 92.972,293.208 93.259 C 293.204 93.578,292.769 93.610,291.724 93.370 C 290.911 93.182,289.936 93.124,289.557 93.241 C 288.927 93.434,288.668 93.022,288.830 92.089 C 288.861 91.910,288.702 91.878,288.476 92.018 C 288.251 92.157,288.185 92.464,288.330 92.699 C 288.493 92.963,288.410 93.013,288.113 92.829 C 287.848 92.665,287.716 92.309,287.820 92.037 C 287.954 91.690,287.612 91.575,286.668 91.650 C 285.930 91.709,285.228 91.598,285.107 91.403 C 284.771 90.859,91.030 90.942,90.374 91.486 C 89.992 91.803,89.852 91.797,89.852 91.463 C 89.852 91.123,89.643 91.118,89.030 91.447 C 88.578 91.689,88.124 91.802,88.021 91.699 C 87.918 91.596,87.375 91.936,86.815 92.455 C 86.016 93.195,85.320 93.412,83.588 93.459 C 81.597 93.512,80.587 93.582,79.409 93.749 C 79.192 93.780,79.256 93.958,79.550 94.144 C 80.154 94.527,76.703 96.034,75.665 95.841 C 75.140 95.743,75.140 95.776,75.665 96.141 C 76.349 96.616,75.625 97.323,74.442 97.334 C 74.094 97.337,73.309 97.803,72.698 98.370 C 71.718 99.279,71.140 99.563,70.049 99.674 C 69.887 99.691,69.754 99.974,69.754 100.304 C 69.754 100.634,69.313 101.104,68.774 101.350 C 68.235 101.595,67.522 102.212,67.189 102.721 C 66.855 103.229,66.310 103.645,65.978 103.645 C 65.645 103.645,65.467 103.799,65.583 103.987 C 65.699 104.175,65.444 104.645,65.015 105.033 C 64.587 105.421,64.236 105.600,64.236 105.432 C 64.236 105.263,63.981 105.337,63.669 105.596 C 63.357 105.855,63.183 106.280,63.283 106.540 C 63.382 106.801,62.924 107.217,62.264 107.466 C 61.604 107.716,61.112 108.140,61.172 108.410 C 61.232 108.680,60.871 109.115,60.369 109.376 C 59.868 109.637,59.495 109.918,59.540 109.999 C 59.888 110.623,58.985 111.911,58.489 111.500 C 58.182 111.245,57.916 111.191,57.898 111.380 C 57.844 111.947,57.603 113.249,57.397 114.089 C 57.290 114.522,57.190 115.010,57.173 115.172 C 57.156 115.335,56.953 115.468,56.721 115.468 C 56.041 115.468,55.255 116.447,55.110 117.473 C 55.036 117.996,54.591 118.593,54.120 118.799 C 53.383 119.123,53.263 119.497,53.254 121.518 C 53.248 122.806,53.056 124.047,52.828 124.275 C 52.538 124.565,52.414 124.543,52.414 124.201 C 52.414 123.820,52.296 123.823,51.875 124.216 C 51.421 124.640,51.437 124.793,51.974 125.189 C 52.560 125.620,52.560 125.678,51.975 125.905 C 51.613 126.045,51.334 126.609,51.328 127.214 C 51.322 127.798,51.297 130.204,51.274 132.561 C 51.237 136.278,51.155 136.782,50.654 136.366 C 50.336 136.102,49.848 135.978,49.570 136.089 C 49.223 136.229,49.259 136.302,49.685 136.324 C 50.154 136.347,50.262 136.659,50.125 137.593 C 50.025 138.274,50.100 138.734,50.292 138.616 C 50.493 138.491,50.598 164.806,50.539 201.023 C 50.444 260.267,50.401 263.647,49.751 263.670 C 49.261 263.688,49.338 263.805,50.020 264.077 L 50.976 264.459 50.115 265.062 C 49.367 265.587,49.328 265.739,49.821 266.232 C 50.518 266.929,50.982 266.972,50.606 266.305 C 50.412 265.963,50.460 265.934,50.764 266.211 C 51.036 266.460,51.220 268.635,51.254 272.019 C 51.306 277.208,51.346 277.457,52.235 278.123 C 52.878 278.605,53.205 279.304,53.301 280.403 C 53.377 281.275,53.564 282.191,53.717 282.439 C 53.870 282.686,53.772 282.978,53.500 283.088 C 53.228 283.198,53.398 283.302,53.878 283.319 C 54.794 283.351,55.579 284.397,55.291 285.200 C 55.198 285.459,55.302 286.008,55.522 286.420 C 55.804 286.946,55.788 287.305,55.469 287.624 C 55.126 287.968,55.177 288.079,55.676 288.079 C 56.513 288.079,57.547 289.634,57.682 291.095 C 57.741 291.742,57.992 292.172,58.273 292.111 C 58.542 292.053,59.031 292.275,59.360 292.604 C 59.689 292.933,59.850 293.202,59.719 293.202 C 59.587 293.202,59.677 293.570,59.918 294.021 C 60.188 294.525,60.588 294.750,60.961 294.607 C 61.387 294.444,61.497 294.553,61.334 294.980 C 61.052 295.714,62.305 297.064,63.040 296.819 C 63.411 296.696,63.502 296.893,63.348 297.484 C 63.111 298.389,63.568 298.845,64.801 298.936 C 65.227 298.967,65.647 299.207,65.734 299.469 C 65.822 299.731,66.273 300.300,66.737 300.732 C 67.582 301.519,67.580 301.519,41.693 301.400 C 13.553 301.270,14.996 301.172,15.343 303.201 C 15.375 303.390,15.153 303.450,14.850 303.333 C 14.477 303.190,14.009 303.760,13.412 305.081 C 12.924 306.159,12.431 306.947,12.315 306.831 C 12.199 306.715,12.312 306.370,12.565 306.065 C 13.117 305.400,12.267 304.900,11.447 305.407 C 11.048 305.654,11.055 305.757,11.483 305.913 C 11.913 306.070,11.922 306.212,11.527 306.631 C 11.141 307.040,11.034 314.489,11.034 341.130 C 11.034 367.942,11.138 375.149,11.527 375.307 C 11.889 375.454,11.901 375.593,11.571 375.832 C 11.243 376.070,11.269 376.294,11.669 376.666 C 11.970 376.945,12.217 377.009,12.217 376.806 C 12.217 376.604,12.450 376.349,12.735 376.240 C 13.097 376.101,13.251 376.416,13.244 377.282 C 13.239 377.964,13.348 379.054,13.485 379.704 L 13.734 380.887 53.603 380.806 C 80.419 380.752,93.634 380.591,93.965 380.317 C 94.235 380.092,94.568 380.019,94.704 380.155 C 94.840 380.291,94.878 380.027,94.790 379.569 C 94.702 379.110,94.752 378.753,94.901 378.774 C 95.893 378.915,96.855 378.644,96.840 378.227 C 96.782 376.676,96.958 376.158,97.340 376.749 C 97.563 377.094,97.724 377.147,97.728 376.876 C 97.731 376.621,98.044 376.331,98.424 376.232 C 99.080 376.061,99.080 376.050,98.424 376.006 C 98.044 375.981,97.734 375.783,97.734 375.567 C 97.734 375.350,97.956 375.217,98.227 375.271 C 98.617 375.349,98.740 368.673,98.820 343.151 L 98.921 310.933 155.175 311.033 C 208.145 311.127,211.422 311.173,211.315 311.811 C 211.242 312.253,211.539 312.575,212.168 312.732 C 212.749 312.878,213.229 313.354,213.372 313.926 C 213.522 314.520,213.896 314.877,214.372 314.877 C 214.791 314.877,215.288 315.153,215.477 315.491 C 215.666 315.828,217.111 317.412,218.689 319.011 C 220.516 320.861,221.449 322.092,221.260 322.399 C 221.096 322.664,221.122 322.787,221.318 322.672 C 222.063 322.236,223.251 323.041,223.251 323.981 C 223.251 324.716,223.462 324.926,224.197 324.926 C 225.140 324.926,225.941 326.116,225.502 326.865 C 225.385 327.064,225.579 327.117,225.932 326.981 C 226.520 326.755,229.037 328.738,229.202 329.557 C 229.234 329.719,229.304 329.985,229.357 330.148 C 229.410 330.310,229.432 330.576,229.406 330.739 C 229.381 330.901,229.803 331.034,230.345 331.034 C 230.964 331.034,231.330 331.257,231.330 331.634 C 231.330 331.964,231.773 332.436,232.315 332.683 C 232.968 332.980,233.300 333.451,233.300 334.077 C 233.300 334.597,233.462 334.922,233.659 334.800 C 234.351 334.373,235.271 335.069,235.271 336.020 C 235.271 336.560,235.487 336.952,235.764 336.916 C 236.860 336.774,237.241 336.983,237.241 337.726 C 237.241 338.222,237.587 338.594,238.189 338.745 C 238.711 338.876,239.230 339.336,239.342 339.767 C 239.455 340.198,239.877 340.637,240.279 340.742 C 240.681 340.848,241.237 341.446,241.514 342.071 C 241.791 342.697,242.233 343.126,242.496 343.025 C 242.760 342.923,243.175 343.373,243.423 344.032 C 243.742 344.876,244.055 345.153,244.498 344.983 C 245.097 344.753,245.184 344.910,245.282 346.403 C 245.304 346.728,245.587 347.012,245.912 347.033 C 247.260 347.122,247.454 347.215,247.273 347.686 C 247.169 347.958,247.529 348.515,248.074 348.924 C 248.618 349.332,249.064 349.913,249.064 350.213 C 249.064 350.513,249.507 350.927,250.049 351.133 C 250.591 351.339,251.057 351.689,251.084 351.911 C 251.189 352.773,251.259 352.937,251.924 353.881 C 252.302 354.417,252.611 354.674,252.611 354.452 C 252.611 354.231,252.389 353.826,252.118 353.553 C 251.723 353.155,251.764 353.110,252.326 353.324 C 252.712 353.470,253.200 353.914,253.412 354.309 C 253.641 354.738,254.111 354.967,254.575 354.878 C 255.100 354.777,255.561 355.079,255.991 355.808 C 257.034 357.573,264.612 357.336,264.626 355.539 C 264.629 355.075,264.955 354.883,265.714 354.899 C 266.310 354.911,266.798 354.783,266.798 354.616 C 266.798 354.448,267.108 354.427,267.488 354.569 C 268.111 354.803,268.122 354.754,267.599 354.064 C 267.281 353.644,267.172 353.427,267.356 353.583 C 267.777 353.938,269.217 352.153,269.073 351.454 C 269.009 351.144,269.314 350.948,269.833 350.965 C 270.310 350.981,270.619 350.863,270.520 350.703 C 270.421 350.543,270.563 350.322,270.835 350.213 C 271.225 350.055,271.222 350.006,270.824 349.982 C 270.471 349.960,270.425 349.742,270.672 349.261 C 270.867 348.882,271.064 340.149,271.109 329.855 C 271.155 319.561,271.224 311.110,271.261 311.074 C 271.299 311.038,275.941 310.943,281.576 310.863 C 289.895 310.744,291.801 310.617,291.708 310.187 C 291.637 309.860,291.818 309.743,292.181 309.882 C 292.578 310.035,292.697 309.923,292.549 309.537 C 292.398 309.144,292.620 308.950,293.258 308.915 C 293.769 308.887,294.695 308.834,295.317 308.797 C 295.938 308.761,296.671 308.422,296.947 308.046 C 297.222 307.669,297.823 307.289,298.282 307.200 C 298.741 307.112,299.249 306.963,299.410 306.870 C 301.118 305.882,301.074 304.957,301.102 342.755 C 301.122 370.089,301.237 378.289,301.598 378.219 C 301.857 378.169,302.039 378.305,302.003 378.522 C 301.960 378.783,315.348 378.916,341.511 378.916 C 366.242 378.916,381.084 378.776,381.084 378.542 C 381.084 378.336,381.297 378.380,381.557 378.640 C 382.179 379.263,382.788 379.249,382.411 378.621 C 382.238 378.334,382.424 378.375,382.857 378.719 C 383.290 379.064,383.476 379.105,383.304 378.818 C 383.141 378.547,383.181 378.325,383.392 378.325 C 383.604 378.325,383.836 378.485,383.908 378.680 C 383.980 378.876,384.268 378.787,384.548 378.483 C 384.841 378.164,384.883 377.931,384.646 377.931 C 384.421 377.931,384.236 377.743,384.236 377.514 C 384.236 377.284,384.414 377.206,384.631 377.340 C 384.847 377.474,385.025 377.385,385.025 377.143 C 385.025 376.901,385.200 376.810,385.414 376.943 C 386.774 377.784,387.025 362.269,386.604 303.153 C 386.603 302.882,386.255 302.660,385.832 302.660 C 385.410 302.660,384.883 302.350,384.662 301.970 C 384.441 301.591,384.255 301.500,384.248 301.769 C 384.229 302.560,316.847 302.211,316.847 301.420 C 316.847 301.264,316.493 301.024,316.059 300.887 C 315.626 300.749,315.271 300.477,315.271 300.281 C 315.271 300.086,315.581 300.023,315.961 300.141 C 316.484 300.303,316.460 300.235,315.862 299.857 C 315.429 299.582,315.074 299.422,315.074 299.499 C 315.074 299.577,314.661 299.420,314.157 299.150 C 313.601 298.852,313.326 298.432,313.460 298.083 C 313.582 297.766,313.419 297.407,313.099 297.284 C 312.779 297.161,312.617 296.899,312.739 296.701 C 312.861 296.503,313.117 296.438,313.307 296.556 C 313.498 296.674,313.584 296.410,313.500 295.971 C 313.390 295.404,313.555 295.172,314.068 295.172 C 314.464 295.172,314.781 294.951,314.771 294.680 C 314.725 293.434,314.923 292.874,315.488 292.658 C 315.835 292.524,315.997 292.590,315.862 292.808 C 315.726 293.028,315.892 293.090,316.252 292.952 C 316.616 292.812,316.832 292.358,316.765 291.873 C 316.684 291.278,316.851 291.050,317.340 291.089 C 317.719 291.119,318.030 290.898,318.030 290.597 C 318.030 290.296,318.207 290.049,318.424 290.049 C 318.640 290.049,318.818 289.861,318.818 289.632 C 318.818 289.402,318.596 289.340,318.325 289.493 C 317.931 289.715,317.931 289.665,318.325 289.240 C 318.596 288.948,318.821 288.346,318.825 287.901 C 318.828 287.457,319.257 286.690,319.777 286.197 C 320.308 285.694,320.839 284.607,320.990 283.717 C 321.210 282.415,321.356 282.215,321.811 282.593 C 322.257 282.963,322.365 282.889,322.365 282.216 C 322.365 281.756,322.511 281.379,322.690 281.379 C 322.870 281.379,322.972 280.593,322.918 279.632 C 322.795 277.461,323.091 276.256,323.748 276.256 C 324.413 276.256,324.632 275.586,324.554 273.793 C 324.518 272.980,324.587 272.315,324.708 272.315 C 324.945 272.315,324.836 132.784,324.599 132.546 C 324.519 132.467,324.527 131.678,324.615 130.794 C 324.734 129.604,324.652 129.262,324.298 129.481 C 323.998 129.666,323.921 129.612,324.091 129.336 C 324.241 129.094,324.004 128.536,323.565 128.097 C 322.871 127.403,322.790 126.931,322.950 124.535 C 323.100 122.280,323.027 121.773,322.552 121.773 C 321.841 121.773,321.808 121.331,322.463 120.571 C 322.877 120.092,322.864 120.079,322.384 120.493 C 322.070 120.764,321.671 120.985,321.498 120.985 C 320.988 120.985,321.136 119.887,321.675 119.670 C 321.954 119.557,321.851 119.458,321.436 119.440 C 320.953 119.419,320.781 119.208,320.931 118.818 C 321.055 118.493,320.975 118.227,320.753 118.227 C 320.530 118.227,320.457 118.049,320.591 117.833 C 320.725 117.616,320.652 117.438,320.430 117.438 C 320.207 117.438,320.128 117.170,320.253 116.843 C 320.423 116.400,320.302 116.316,319.782 116.516 C 319.328 116.690,319.175 116.634,319.347 116.357 C 319.492 116.122,319.425 115.867,319.197 115.792 C 318.970 115.716,318.726 115.124,318.655 114.477 C 318.552 113.531,318.362 113.325,317.687 113.424 C 316.909 113.538,316.606 112.977,316.809 111.797 C 316.839 111.621,316.506 111.020,316.068 110.463 C 315.629 109.906,315.268 109.607,315.265 109.799 C 315.262 109.991,315.100 109.897,314.906 109.590 C 314.712 109.284,314.616 108.707,314.692 108.309 C 314.797 107.767,314.591 107.586,313.869 107.586 C 313.102 107.586,312.906 107.384,312.906 106.589 C 312.906 105.982,312.636 105.507,312.217 105.378 C 310.938 104.983,310.345 104.547,310.335 103.996 C 310.330 103.695,310.033 103.471,309.676 103.498 C 309.301 103.527,308.929 103.160,308.796 102.629 C 308.638 102.001,308.132 101.590,307.194 101.332 C 305.385 100.832,304.507 99.926,304.834 98.897 C 305.039 98.250,305.203 98.180,305.649 98.550 C 306.101 98.925,306.207 98.850,306.207 98.153 C 306.207 97.680,306.384 97.403,306.601 97.537 C 306.818 97.671,306.995 97.394,306.995 96.921 C 306.995 96.263,307.115 96.160,307.504 96.483 C 307.882 96.797,308.136 96.708,308.492 96.138 C 308.837 95.586,308.846 95.369,308.527 95.369 C 308.221 95.369,308.240 95.178,308.587 94.760 C 308.876 94.411,309.193 94.312,309.327 94.529 C 309.469 94.758,309.843 94.703,310.272 94.388 C 310.751 94.038,310.839 93.780,310.542 93.596 C 309.975 93.246,311.234 92.247,312.265 92.229 C 312.876 92.219,312.918 92.115,312.512 91.626 C 312.100 91.129,370.234 90.555,379.086 90.968 C 379.613 90.992,380.278 90.818,380.564 90.581 C 380.945 90.265,381.248 90.286,381.697 90.659 C 382.204 91.080,382.290 91.071,382.190 90.609 C 382.123 90.301,382.284 90.091,382.547 90.143 C 382.824 90.197,382.931 89.989,382.801 89.650 C 382.596 89.116,383.071 88.868,383.982 89.031 C 384.168 89.064,384.550 88.901,384.831 88.667 C 385.203 88.359,385.388 88.381,385.511 88.749 C 385.638 89.130,385.840 89.093,386.334 88.600 C 386.779 88.154,386.840 87.896,386.527 87.791 C 386.247 87.698,386.178 87.344,386.351 86.891 C 386.826 85.653,386.703 13.604,386.225 13.547 C 385.998 13.520,385.724 13.453,385.616 13.399 C 385.369 13.275,384.777 13.126,384.138 13.026 C 383.867 12.984,384.000 12.797,384.433 12.611 C 385.068 12.338,385.093 12.267,384.561 12.244 C 384.197 12.229,383.819 11.906,383.720 11.527 C 383.548 10.870,383.538 10.870,383.494 11.527 M371.232 51.232 L 371.232 81.576 346.010 81.576 C 332.138 81.576,320.826 81.443,320.872 81.281 C 321.034 80.709,319.965 79.212,319.395 79.212 C 318.893 79.212,318.818 75.397,318.818 50.049 L 318.818 20.887 345.025 20.887 L 371.232 20.887 371.232 51.232 M186.261 113.200 C 239.828 113.261,274.601 113.157,275.003 112.935 C 275.584 112.615,275.598 112.651,275.124 113.231 C 274.715 113.731,274.702 113.892,275.074 113.892 C 275.464 113.892,275.464 114.012,275.077 114.478 C 274.810 114.801,274.432 114.967,274.237 114.847 C 274.043 114.727,273.398 115.017,272.804 115.491 L 271.724 116.354 272.709 116.064 C 273.375 115.868,273.567 115.903,273.300 116.174 C 273.084 116.394,272.552 116.642,272.118 116.726 C 271.640 116.818,271.355 117.161,271.393 117.600 C 271.433 118.067,271.048 118.476,270.301 118.758 C 269.631 119.011,269.228 119.404,269.339 119.695 C 269.445 119.971,269.389 120.197,269.215 120.197 C 269.041 120.197,268.071 121.013,267.060 122.009 C 266.049 123.006,265.216 123.583,265.210 123.290 C 265.202 122.943,265.058 122.999,264.794 123.451 C 264.572 123.832,264.500 124.320,264.632 124.535 C 264.765 124.750,264.553 124.932,264.161 124.939 C 263.071 124.958,262.023 125.890,262.480 126.434 C 262.691 126.685,262.750 126.809,262.612 126.710 C 262.126 126.364,260.887 127.325,260.887 128.049 C 260.887 128.496,260.626 128.758,260.214 128.725 C 259.833 128.694,259.304 129.153,258.996 129.782 C 258.667 130.455,258.237 130.812,257.908 130.686 C 257.610 130.572,257.260 130.647,257.132 130.855 C 257.004 131.062,257.094 131.232,257.332 131.232 C 257.570 131.232,257.403 131.620,256.961 132.094 C 256.519 132.568,256.158 133.095,256.158 133.264 C 256.158 133.433,255.932 133.485,255.656 133.379 C 255.363 133.266,254.967 133.681,254.705 134.377 C 254.401 135.180,254.065 135.495,253.670 135.343 C 253.348 135.220,252.951 135.336,252.787 135.601 C 252.588 135.923,252.653 135.981,252.985 135.776 C 253.258 135.607,253.176 135.934,252.803 136.503 C 252.036 137.675,251.612 137.867,251.995 136.869 C 252.216 136.292,252.140 136.302,251.432 136.943 C 250.981 137.351,250.697 137.904,250.800 138.173 C 250.903 138.442,250.732 138.874,250.420 139.133 C 249.977 139.500,249.852 139.496,249.852 139.113 C 249.852 138.722,249.733 138.722,249.261 139.113 C 248.548 139.705,248.468 140.464,249.163 140.046 C 249.501 139.843,249.487 139.957,249.118 140.413 C 248.822 140.777,248.422 140.977,248.227 140.857 C 248.033 140.737,247.388 141.027,246.794 141.501 L 245.714 142.364 246.700 142.074 C 247.365 141.878,247.557 141.913,247.291 142.183 C 247.074 142.404,246.542 142.648,246.108 142.727 C 245.675 142.806,245.318 143.175,245.316 143.549 C 245.314 143.922,244.885 144.526,244.364 144.891 C 243.778 145.302,243.539 145.355,243.739 145.032 C 243.961 144.673,243.911 144.602,243.581 144.807 C 243.316 144.970,243.194 145.352,243.311 145.656 C 243.427 145.959,243.380 146.207,243.205 146.207 C 243.031 146.207,242.061 147.022,241.050 148.019 C 240.039 149.016,239.212 149.626,239.212 149.375 C 239.212 149.124,239.042 149.024,238.835 149.152 C 238.628 149.280,238.552 149.631,238.668 149.931 C 238.801 150.278,238.362 150.721,237.460 151.149 C 236.249 151.724,236.116 151.911,236.544 152.440 C 236.905 152.886,236.912 152.978,236.566 152.771 C 235.938 152.393,234.364 153.967,234.741 154.596 C 234.948 154.941,234.857 154.935,234.410 154.573 C 233.881 154.145,233.694 154.278,233.120 155.490 C 232.692 156.391,232.249 156.830,231.901 156.697 C 231.601 156.582,231.250 156.657,231.122 156.865 C 230.994 157.072,231.084 157.241,231.322 157.241 C 231.560 157.241,231.393 157.629,230.951 158.104 C 230.509 158.578,230.148 159.105,230.148 159.274 C 230.148 159.443,229.926 159.496,229.655 159.392 C 229.380 159.287,228.934 159.719,228.646 160.368 C 228.336 161.068,227.919 161.453,227.603 161.331 C 227.312 161.220,226.941 161.345,226.777 161.610 C 226.578 161.933,226.643 161.991,226.975 161.786 C 227.262 161.608,227.198 161.896,226.821 162.471 C 226.363 163.171,225.933 163.401,225.366 163.253 C 224.583 163.048,224.567 162.842,224.751 155.610 C 224.856 151.522,224.798 148.177,224.624 148.177 C 224.449 148.177,224.356 147.867,224.417 147.488 C 224.574 146.518,224.203 146.020,223.799 146.657 C 223.535 147.074,223.459 147.040,223.454 146.502 C 223.451 146.123,223.273 145.813,223.059 145.813 C 222.844 145.813,222.683 145.414,222.699 144.926 C 222.716 144.438,222.604 143.640,222.452 143.153 C 222.274 142.584,222.338 142.266,222.630 142.266 C 222.954 142.266,222.942 142.113,222.588 141.734 C 222.172 141.289,221.993 141.301,221.489 141.809 C 220.948 142.354,220.875 142.278,220.770 141.057 C 220.680 140.008,220.370 139.535,219.411 138.985 C 218.491 138.457,218.305 138.187,218.693 137.947 C 219.089 137.702,219.012 137.558,218.377 137.356 C 217.629 137.119,217.373 136.705,217.477 135.903 C 217.495 135.763,216.895 135.534,216.144 135.393 C 215.348 135.243,214.778 134.904,214.778 134.577 C 214.778 133.951,213.441 133.094,213.059 133.476 C 212.924 133.611,212.702 133.167,212.567 132.490 C 212.405 131.680,212.100 131.274,211.677 131.307 C 209.814 131.450,208.419 131.197,208.570 130.742 C 208.816 130.006,208.030 129.440,206.623 129.341 C 205.105 129.234,203.145 128.537,204.252 128.498 C 204.835 128.477,204.869 128.378,204.449 127.925 C 204.123 127.574,203.850 127.523,203.688 127.782 C 203.538 128.020,202.974 128.067,202.308 127.895 C 200.211 127.353,184.434 127.429,184.434 127.980 C 184.434 128.251,184.157 128.473,183.819 128.473 C 183.481 128.473,183.314 128.650,183.448 128.867 C 183.651 129.195,182.681 129.368,181.399 129.232 C 181.247 129.216,180.980 129.589,180.805 130.061 C 180.592 130.636,180.279 130.840,179.855 130.677 C 179.392 130.499,179.287 130.603,179.465 131.066 C 179.761 131.837,178.612 134.384,177.968 134.384 C 177.297 134.384,177.276 134.877,177.148 153.483 C 177.065 165.480,176.903 170.458,176.592 170.561 C 176.350 170.642,176.253 170.870,176.375 171.068 C 176.498 171.266,176.322 171.429,175.984 171.429 C 175.382 171.429,175.259 171.715,175.264 173.103 C 175.266 173.483,175.113 173.793,174.924 173.793 C 174.736 173.793,174.570 174.103,174.556 174.483 C 174.537 175.011,174.448 174.965,174.175 174.286 C 173.702 173.109,173.462 173.159,173.697 174.387 C 173.801 174.930,173.672 175.631,173.411 175.946 C 173.151 176.260,173.051 176.702,173.191 176.929 C 173.340 177.169,173.066 177.340,172.532 177.340 C 172.029 177.340,171.397 177.695,171.126 178.128 C 170.855 178.562,170.447 178.916,170.220 178.916 C 169.992 178.916,169.915 178.739,170.049 178.522 C 170.463 177.853,169.775 178.088,169.183 178.818 C 168.678 179.441,168.639 179.382,168.778 178.209 C 168.863 177.495,168.776 176.814,168.585 176.696 C 168.394 176.578,168.468 176.197,168.749 175.850 C 169.133 175.376,169.138 175.292,168.768 175.514 C 168.477 175.689,168.265 175.600,168.248 175.294 C 168.233 175.010,168.068 175.133,167.882 175.567 C 167.695 176.000,167.531 176.125,167.515 175.845 C 167.500 175.564,167.235 175.387,166.926 175.451 C 166.618 175.514,165.864 175.034,165.251 174.384 L 164.138 173.202 138.227 173.202 C 121.219 173.202,112.313 173.337,112.309 173.596 C 112.306 173.813,112.151 173.750,111.964 173.455 C 111.739 173.100,111.539 173.061,111.367 173.340 C 111.224 173.570,110.865 173.666,110.569 173.552 C 110.273 173.438,109.896 173.562,109.733 173.827 C 109.527 174.160,109.606 174.212,109.988 173.993 C 110.293 173.819,110.103 174.102,109.566 174.622 C 109.029 175.141,108.453 175.589,108.285 175.616 C 108.117 175.643,107.813 175.687,107.609 175.714 C 107.405 175.741,107.306 176.118,107.389 176.552 C 107.473 176.985,107.374 177.340,107.169 177.340 C 106.965 177.340,106.448 177.690,106.020 178.118 C 104.866 179.272,104.754 269.553,105.907 269.563 C 106.499 269.568,106.514 269.625,106.010 269.951 C 105.482 270.292,105.719 270.512,106.491 270.395 C 106.647 270.372,106.963 270.706,107.194 271.137 C 107.425 271.568,107.506 271.921,107.375 271.921 C 107.243 271.921,107.401 272.187,107.726 272.511 C 108.050 272.836,108.577 273.001,108.896 272.878 C 109.670 272.581,110.200 273.492,109.509 273.930 C 109.108 274.183,109.204 274.275,109.875 274.280 C 110.488 274.284,110.695 274.447,110.507 274.778 C 110.299 275.147,110.350 275.160,110.709 274.829 C 111.064 274.502,111.437 274.502,112.140 274.829 C 113.298 275.368,113.694 276.221,112.900 276.468 C 112.578 276.568,112.031 276.740,111.683 276.851 C 111.330 276.962,111.147 277.300,111.268 277.615 C 111.406 277.977,111.065 278.365,110.319 278.695 C 109.678 278.979,109.232 279.417,109.329 279.668 C 109.425 279.919,108.939 280.403,108.250 280.743 C 107.560 281.083,107.150 281.365,107.339 281.370 C 107.528 281.375,107.447 281.664,107.158 282.011 C 106.613 282.668,104.863 283.529,104.318 283.408 C 104.146 283.370,104.190 283.683,104.416 284.105 C 104.760 284.748,104.686 284.892,103.956 284.997 C 103.408 285.077,103.001 285.486,102.856 286.104 C 102.701 286.766,102.528 286.927,102.324 286.597 C 102.158 286.328,101.811 286.111,101.553 286.114 C 101.233 286.119,101.251 286.226,101.609 286.454 C 102.033 286.722,102.013 286.834,101.511 287.026 C 101.168 287.158,100.887 287.510,100.887 287.808 C 100.887 288.412,99.325 289.985,99.285 289.421 C 99.272 289.225,99.099 289.466,98.902 289.956 C 98.435 291.119,96.928 291.679,95.426 291.248 C 94.777 291.062,94.172 290.984,94.082 291.074 C 93.991 291.165,93.484 290.839,92.955 290.349 C 92.236 289.682,91.468 289.442,89.901 289.393 C 87.450 289.317,85.808 288.961,86.051 288.560 C 86.232 288.261,85.292 287.234,84.924 287.330 C 83.971 287.577,82.365 286.817,82.365 286.118 C 82.365 285.679,82.129 285.320,81.842 285.320 C 81.555 285.320,80.903 284.877,80.394 284.335 C 79.885 283.793,79.223 283.350,78.923 283.350 C 78.623 283.350,78.478 283.187,78.601 282.987 C 78.893 282.515,77.682 281.304,77.210 281.596 C 76.911 281.781,76.718 281.179,76.763 280.197 C 76.768 280.089,76.523 279.771,76.218 279.492 C 75.789 279.097,75.665 279.093,75.665 279.472 C 75.665 279.834,75.550 279.846,75.222 279.517 C 74.978 279.273,74.778 278.617,74.778 278.059 C 74.778 277.501,74.594 277.044,74.368 277.044 C 74.142 277.044,74.061 276.941,74.187 276.814 C 74.314 276.688,74.077 276.245,73.662 275.829 C 73.246 275.414,72.906 274.552,72.906 273.915 C 72.906 273.277,72.710 272.635,72.470 272.486 C 72.166 272.298,72.196 272.114,72.569 271.878 C 73.005 271.602,72.994 271.537,72.512 271.527 C 71.987 271.516,71.987 271.473,72.512 271.133 C 72.990 270.824,72.934 270.750,72.217 270.745 C 71.142 270.738,71.211 269.856,72.315 269.497 C 72.970 269.285,72.919 269.234,72.020 269.202 L 70.936 269.163 70.936 201.214 C 70.936 130.329,70.903 132.039,72.259 131.989 C 72.723 131.971,72.874 131.866,72.594 131.753 C 72.241 131.612,72.208 131.402,72.485 131.068 C 72.705 130.803,72.864 130.155,72.840 129.628 C 72.716 126.984,72.878 126.502,73.887 126.502 C 74.580 126.502,74.851 126.300,74.810 125.813 C 74.617 123.515,74.876 122.635,75.682 122.846 C 76.125 122.962,76.452 122.901,76.408 122.710 C 76.365 122.520,76.524 121.921,76.761 121.379 C 76.998 120.837,77.203 120.533,77.216 120.704 C 77.230 120.874,77.594 120.824,78.026 120.593 C 78.457 120.362,78.791 120.046,78.767 119.890 C 78.637 119.025,78.904 118.621,79.606 118.621 C 80.057 118.621,80.394 118.358,80.394 118.006 C 80.394 117.668,80.571 117.502,80.788 117.635 C 81.005 117.769,81.182 117.632,81.182 117.330 C 81.182 117.029,81.404 116.768,81.675 116.751 C 83.960 116.608,84.288 116.477,83.821 115.899 C 83.451 115.442,83.456 115.380,83.842 115.613 C 84.113 115.775,84.335 115.741,84.335 115.537 C 84.335 115.333,84.645 115.056,85.025 114.923 C 85.404 114.789,85.961 114.568,86.262 114.431 C 86.636 114.262,86.710 114.343,86.496 114.690 C 86.285 115.031,86.340 115.099,86.665 114.898 C 86.930 114.734,87.056 114.361,86.943 114.069 C 86.819 113.744,86.942 113.615,87.260 113.737 C 87.546 113.847,87.883 113.669,88.009 113.341 C 88.181 112.891,88.898 112.741,90.917 112.730 C 95.089 112.708,96.517 112.518,97.251 111.886 C 97.865 111.358,97.943 111.389,98.056 112.201 L 98.180 113.100 186.261 113.200 M291.729 115.676 C 292.149 116.413,294.395 117.478,294.887 117.174 C 295.113 117.035,295.177 117.113,295.030 117.350 C 294.884 117.586,294.949 117.891,295.172 118.030 C 295.396 118.168,295.483 118.437,295.365 118.627 C 295.248 118.818,295.507 118.905,295.942 118.821 C 296.656 118.684,297.318 119.182,297.334 119.870 C 297.337 120.015,297.729 120.581,298.205 121.128 C 298.680 121.675,299.191 122.771,299.339 123.563 C 299.530 124.581,299.710 124.848,299.953 124.472 C 300.425 123.741,301.070 124.735,301.078 126.207 C 301.082 126.941,301.290 127.291,301.723 127.291 C 302.274 127.291,302.288 127.383,301.822 127.957 C 301.524 128.324,301.482 128.503,301.729 128.356 C 302.599 127.834,303.182 129.294,303.239 132.141 C 303.274 133.862,303.548 135.487,303.933 136.260 C 304.284 136.962,304.406 137.537,304.206 137.537 C 304.006 137.537,303.825 137.315,303.803 137.044 C 303.781 136.773,303.636 136.995,303.479 137.537 C 303.290 138.191,303.370 138.628,303.715 138.837 C 304.144 139.096,304.236 150.181,304.236 201.202 C 304.236 240.231,304.376 263.251,304.612 263.251 C 304.818 263.251,304.547 263.726,304.010 264.305 C 303.271 265.103,303.156 265.437,303.536 265.679 C 303.813 265.854,303.862 266.003,303.645 266.010 C 303.429 266.016,303.516 266.189,303.839 266.394 C 304.340 266.710,304.346 266.841,303.880 267.274 C 303.429 267.693,303.388 267.685,303.648 267.230 C 303.874 266.834,303.817 266.767,303.449 266.994 C 303.042 267.246,303.070 267.411,303.586 267.788 C 304.246 268.271,304.520 268.990,303.898 268.606 C 303.711 268.491,303.607 268.835,303.666 269.371 C 303.725 269.906,303.629 270.345,303.454 270.345 C 303.279 270.345,303.165 270.969,303.200 271.732 C 303.248 272.737,303.019 273.334,302.372 273.897 C 301.494 274.660,301.098 275.749,301.872 275.271 C 302.089 275.137,302.266 275.215,302.266 275.445 C 302.266 275.674,302.092 275.862,301.879 275.862 C 301.667 275.862,301.382 276.305,301.246 276.847 C 301.110 277.389,300.830 277.833,300.624 277.833 C 300.418 277.833,300.344 277.986,300.460 278.174 C 300.576 278.362,300.334 278.821,299.921 279.194 C 299.509 279.567,299.234 280.193,299.309 280.586 C 299.416 281.139,299.149 281.335,298.125 281.454 C 297.399 281.539,296.891 281.468,296.997 281.297 C 297.103 281.125,297.012 280.985,296.795 280.985 C 296.578 280.985,296.469 280.626,296.554 280.187 C 296.638 279.747,296.575 279.470,296.414 279.569 C 295.891 279.893,295.196 279.202,295.045 278.209 C 294.937 277.507,294.650 277.241,293.996 277.241 C 293.414 277.241,292.976 276.918,292.758 276.329 C 292.572 275.828,292.242 275.528,292.023 275.663 C 291.804 275.798,291.626 275.710,291.626 275.468 C 291.626 275.226,291.448 275.137,291.232 275.271 C 291.015 275.405,290.837 275.266,290.837 274.961 C 290.837 274.270,289.488 273.008,289.131 273.365 C 288.986 273.510,288.867 273.352,288.867 273.014 C 288.867 272.676,288.590 272.293,288.251 272.163 C 287.912 272.033,287.752 271.736,287.896 271.504 C 288.048 271.259,287.903 271.133,287.553 271.205 C 287.220 271.274,286.924 271.153,286.894 270.936 C 286.865 270.719,286.583 270.398,286.269 270.222 C 285.955 270.046,285.788 269.756,285.899 269.577 C 286.009 269.398,285.846 269.276,285.536 269.306 C 285.226 269.335,284.978 269.198,284.984 269.001 C 284.991 268.804,284.711 268.482,284.362 268.287 C 284.013 268.092,283.818 267.785,283.928 267.606 C 284.039 267.428,283.821 267.305,283.444 267.335 C 283.067 267.365,282.754 267.123,282.748 266.798 C 282.731 265.845,282.187 265.239,281.564 265.478 C 281.132 265.644,280.985 265.390,280.985 264.476 C 280.985 263.432,280.840 263.251,280.000 263.251 C 279.212 263.251,279.015 263.054,279.015 262.266 C 279.015 261.433,278.831 261.281,277.825 261.281 C 276.753 261.281,276.660 261.184,276.883 260.296 C 277.108 259.398,277.018 259.310,275.862 259.310 C 274.707 259.310,274.616 259.223,274.842 258.325 C 275.064 257.437,274.971 257.340,273.899 257.340 C 272.976 257.340,272.709 257.165,272.709 256.559 C 272.709 256.055,272.360 255.691,271.724 255.531 C 271.121 255.380,270.739 255.004,270.739 254.560 C 270.739 254.159,270.256 253.604,269.655 253.317 C 269.059 253.031,268.571 252.578,268.571 252.310 C 268.571 252.042,268.394 251.791,268.177 251.752 C 267.511 251.633,266.850 250.786,266.578 249.703 C 266.435 249.135,266.072 248.670,265.770 248.670 C 265.468 248.670,265.222 248.482,265.222 248.253 C 265.222 248.023,265.443 247.968,265.714 248.131 C 266.072 248.346,266.064 248.251,265.685 247.784 C 265.392 247.422,264.890 247.246,264.537 247.381 C 264.121 247.541,264.006 247.466,264.195 247.161 C 264.366 246.884,264.234 246.700,263.866 246.700 C 263.528 246.700,263.251 246.512,263.251 246.282 C 263.251 246.053,263.473 245.998,263.744 246.161 C 264.067 246.355,264.046 246.222,263.685 245.777 C 263.381 245.403,262.939 245.161,262.703 245.240 C 262.292 245.377,261.281 244.623,261.281 244.178 C 261.281 244.061,261.591 244.071,261.970 244.199 C 262.435 244.356,262.371 244.216,261.773 243.770 C 261.285 243.405,260.680 243.234,260.430 243.389 C 260.118 243.581,260.045 243.402,260.197 242.820 C 260.319 242.352,260.290 242.049,260.132 242.147 C 258.636 243.071,258.294 237.946,259.771 236.741 C 260.276 236.328,260.424 236.108,260.099 236.251 C 259.580 236.480,259.581 236.448,260.103 235.990 C 260.463 235.675,260.746 234.617,260.817 233.323 C 260.905 231.728,261.157 230.970,261.798 230.367 C 262.437 229.766,262.692 229.002,262.783 227.412 C 262.874 225.821,263.129 225.057,263.768 224.456 C 264.413 223.850,264.648 223.133,264.701 221.614 C 264.766 219.735,265.741 217.718,266.390 218.119 C 266.662 218.287,266.713 217.871,266.824 214.642 C 266.873 213.195,267.027 212.536,267.238 212.869 C 267.494 213.272,267.576 213.225,267.580 212.672 C 267.583 212.273,267.937 211.854,268.365 211.742 C 268.992 211.578,269.066 211.394,268.745 210.794 C 268.474 210.287,268.477 210.049,268.755 210.049 C 268.979 210.049,269.163 209.417,269.163 208.644 C 269.163 206.968,269.759 205.714,270.556 205.714 C 270.873 205.714,271.133 205.537,271.133 205.320 C 271.133 205.103,270.960 204.926,270.749 204.926 C 270.524 204.926,270.489 204.557,270.663 204.039 C 271.109 202.718,270.806 193.803,270.326 194.100 C 269.567 194.569,268.966 193.338,268.966 191.314 C 268.966 189.138,268.948 189.105,267.907 189.257 C 266.887 189.407,266.853 189.352,266.949 187.718 C 267.043 186.129,266.971 185.998,265.794 185.609 C 264.880 185.308,264.551 184.968,264.584 184.361 C 264.614 183.823,264.365 183.488,263.882 183.415 C 262.962 183.278,262.488 182.570,262.673 181.610 C 262.797 180.962,262.432 180.705,261.576 180.840 C 261.414 180.866,261.302 180.754,261.327 180.591 C 261.477 179.645,261.155 179.310,260.099 179.310 C 259.100 179.310,258.916 179.157,258.916 178.325 C 258.916 177.592,258.708 177.340,258.102 177.340 C 256.416 177.340,254.833 175.801,256.453 175.736 C 257.041 175.712,257.026 175.660,256.355 175.382 C 255.837 175.168,255.426 175.232,255.158 175.567 C 254.829 175.979,254.571 175.983,253.830 175.586 C 253.324 175.316,252.488 175.140,251.972 175.197 C 251.379 175.262,251.034 175.096,251.034 174.744 C 251.034 174.438,250.847 174.187,250.617 174.187 C 250.388 174.187,250.286 174.048,250.391 173.878 C 250.653 173.453,250.122 173.430,239.868 173.415 C 231.077 173.403,228.956 173.060,232.147 172.168 C 232.673 172.021,232.882 171.884,232.611 171.862 C 232.340 171.840,232.118 171.576,232.118 171.275 C 232.118 170.974,232.429 170.753,232.808 170.783 C 233.203 170.814,233.449 170.607,233.383 170.296 C 233.313 169.968,233.489 169.840,233.831 169.971 C 234.242 170.129,234.336 169.966,234.179 169.367 C 234.033 168.810,234.111 168.637,234.420 168.828 C 234.671 168.983,235.275 168.812,235.763 168.447 C 236.361 168.001,236.426 167.861,235.961 168.018 C 235.581 168.146,235.271 168.155,235.271 168.038 C 235.271 167.594,236.282 166.839,236.693 166.977 C 236.930 167.055,237.371 166.814,237.675 166.440 C 238.036 165.995,238.057 165.862,237.734 166.056 C 237.463 166.219,237.241 166.164,237.241 165.935 C 237.241 165.705,237.518 165.517,237.856 165.517 C 238.194 165.517,238.362 165.342,238.229 165.128 C 238.097 164.913,238.235 164.833,238.537 164.949 C 238.839 165.064,239.336 164.851,239.641 164.474 C 240.001 164.032,240.023 163.894,239.704 164.086 C 239.433 164.248,239.212 164.194,239.212 163.964 C 239.212 163.735,239.488 163.547,239.826 163.547 C 240.164 163.547,240.328 163.365,240.191 163.143 C 240.054 162.921,240.176 162.788,240.463 162.847 C 240.750 162.907,240.936 162.719,240.875 162.429 C 240.815 162.140,241.123 161.809,241.561 161.695 C 241.998 161.580,242.256 161.325,242.134 161.128 C 242.012 160.930,242.147 160.817,242.434 160.877 C 242.721 160.936,242.907 160.750,242.847 160.463 C 242.788 160.176,242.901 160.041,243.098 160.163 C 243.296 160.285,243.551 160.027,243.665 159.590 C 243.779 159.153,244.110 158.845,244.400 158.905 C 244.689 158.965,244.877 158.780,244.818 158.493 C 244.758 158.206,244.891 158.083,245.113 158.221 C 245.336 158.358,245.517 158.194,245.517 157.856 C 245.517 157.494,245.858 157.241,246.348 157.241 C 246.936 157.241,247.110 157.063,246.943 156.630 C 246.809 156.279,246.875 156.121,247.098 156.259 C 247.312 156.391,247.488 156.223,247.488 155.885 C 247.488 155.547,247.675 155.271,247.905 155.271 C 248.135 155.271,248.196 155.476,248.041 155.726 C 247.859 156.021,247.934 156.073,248.254 155.876 C 248.526 155.708,248.989 155.015,249.285 154.337 C 249.798 153.157,249.823 153.146,249.857 154.089 C 249.889 154.966,249.966 154.912,250.556 153.596 C 251.216 152.127,251.810 151.669,251.836 152.611 C 251.843 152.882,252.164 152.440,252.548 151.628 C 253.089 150.485,253.352 150.259,253.717 150.623 C 254.081 150.988,254.190 150.921,254.200 150.325 C 254.216 149.310,255.211 147.997,255.550 148.544 C 255.722 148.824,255.977 148.800,256.336 148.469 C 256.628 148.200,256.725 147.803,256.552 147.586 C 256.378 147.369,256.485 146.963,256.788 146.684 C 257.112 146.386,257.340 146.346,257.340 146.589 C 257.340 146.854,257.615 146.830,258.108 146.522 C 258.678 146.166,258.767 145.911,258.454 145.533 C 258.131 145.144,258.234 145.025,258.891 145.025 C 259.364 145.025,259.641 144.847,259.507 144.631 C 259.372 144.412,259.661 144.236,260.154 144.236 C 260.844 144.236,260.938 144.131,260.574 143.766 C 260.209 143.402,260.436 143.138,261.579 142.597 C 262.390 142.213,262.833 141.893,262.562 141.885 C 261.306 141.851,262.418 140.886,264.105 140.546 C 264.612 140.443,264.954 139.901,264.512 139.901 C 264.265 139.901,264.166 139.636,264.290 139.313 C 264.414 138.989,264.663 138.814,264.842 138.925 C 265.021 139.036,265.280 138.943,265.419 138.719 C 265.557 138.495,265.799 138.392,265.957 138.490 C 266.115 138.587,266.502 138.504,266.817 138.305 C 267.279 138.013,267.242 137.942,266.624 137.937 C 265.867 137.931,265.867 137.925,266.624 137.311 C 267.045 136.969,267.140 136.820,266.836 136.977 C 266.470 137.167,266.378 137.109,266.565 136.807 C 266.721 136.555,267.309 136.432,267.873 136.534 C 268.634 136.672,268.783 136.605,268.452 136.275 C 268.122 135.945,268.182 135.687,268.684 135.275 C 269.055 134.970,269.111 134.849,268.806 135.007 C 268.472 135.180,268.351 135.135,268.501 134.892 C 268.638 134.671,269.179 134.538,269.705 134.595 C 270.506 134.683,270.644 134.545,270.556 133.745 C 270.498 133.219,270.632 132.677,270.853 132.540 C 271.095 132.391,271.141 132.512,270.968 132.846 C 270.810 133.150,270.960 133.055,271.301 132.634 C 271.863 131.941,271.921 131.934,271.921 132.559 C 271.921 132.938,272.088 133.146,272.291 133.020 C 272.494 132.894,272.611 132.485,272.549 132.110 C 272.488 131.735,272.765 131.118,273.164 130.739 C 273.564 130.360,273.892 130.237,273.892 130.467 C 273.892 130.696,274.072 130.773,274.292 130.636 C 274.512 130.500,274.598 130.236,274.483 130.049 C 274.367 129.862,274.456 129.596,274.680 129.458 C 274.904 129.320,274.996 129.060,274.886 128.881 C 274.775 128.702,274.949 128.454,275.273 128.330 C 275.597 128.205,275.862 128.305,275.862 128.551 C 275.862 128.994,276.404 128.652,276.506 128.144 C 276.847 126.457,277.812 125.345,277.846 126.601 C 277.853 126.872,278.174 126.430,278.558 125.618 C 279.099 124.475,279.362 124.249,279.727 124.613 C 280.091 124.978,280.200 124.911,280.210 124.315 C 280.227 123.261,281.220 121.986,281.576 122.562 C 281.760 122.859,282.018 122.771,282.369 122.292 C 282.683 121.863,282.738 121.489,282.509 121.347 C 282.293 121.213,282.392 120.896,282.740 120.607 C 283.158 120.260,283.350 120.241,283.350 120.546 C 283.350 120.866,283.567 120.856,284.118 120.512 C 284.688 120.156,284.777 119.901,284.464 119.524 C 284.141 119.134,284.243 119.015,284.901 119.015 C 285.374 119.015,285.651 118.837,285.517 118.621 C 285.383 118.404,285.661 118.227,286.133 118.227 C 286.802 118.227,286.897 118.111,286.560 117.705 C 286.223 117.299,286.430 117.065,287.499 116.646 C 288.314 116.326,288.689 115.996,288.424 115.832 C 288.179 115.680,288.098 115.361,288.245 115.123 C 288.599 114.551,291.335 114.985,291.729 115.676 M201.279 149.458 C 201.188 149.729,201.635 150.270,202.273 150.660 C 203.135 151.187,203.390 151.598,203.264 152.257 C 203.171 152.746,203.329 153.364,203.616 153.632 C 204.207 154.185,204.332 155.043,203.771 154.697 C 203.569 154.572,203.293 154.650,203.157 154.870 C 203.021 155.091,203.118 155.271,203.372 155.271 C 203.627 155.271,203.752 155.593,203.649 155.986 C 203.511 156.514,203.679 156.694,204.293 156.676 C 205.122 156.650,205.123 156.672,205.123 170.334 L 205.123 184.018 203.645 185.453 C 202.833 186.242,202.167 187.039,202.167 187.225 C 202.167 187.410,201.919 187.466,201.616 187.350 C 201.313 187.234,200.931 187.355,200.767 187.620 C 200.563 187.951,200.634 188.001,200.992 187.779 C 201.316 187.579,201.262 187.817,200.852 188.403 C 200.487 188.925,199.879 189.353,199.503 189.355 C 199.122 189.358,198.816 189.660,198.813 190.034 C 198.811 190.405,198.589 190.928,198.321 191.197 C 197.933 191.585,197.833 191.578,197.833 191.164 C 197.833 190.738,197.721 190.735,197.223 191.148 C 196.888 191.426,196.701 191.878,196.806 192.153 C 196.911 192.427,196.708 192.886,196.354 193.173 C 195.887 193.551,195.792 193.559,196.007 193.202 C 196.424 192.507,195.666 192.587,195.074 193.300 C 194.680 193.775,194.686 193.892,195.104 193.892 C 195.519 193.892,195.526 193.992,195.138 194.380 C 194.869 194.648,194.346 194.870,193.975 194.872 C 193.570 194.875,193.300 195.185,193.299 195.648 C 193.299 196.142,192.945 196.505,192.314 196.660 C 191.680 196.816,191.352 197.155,191.393 197.612 C 191.433 198.066,191.039 198.479,190.301 198.758 C 189.631 199.011,189.228 199.404,189.339 199.695 C 189.445 199.971,189.381 200.197,189.197 200.197 C 189.013 200.197,188.320 200.752,187.657 201.429 C 186.994 202.107,186.042 202.871,185.541 203.127 C 185.040 203.383,184.655 203.893,184.685 204.260 C 184.719 204.666,184.454 204.926,184.009 204.926 C 183.222 204.926,182.310 206.218,182.772 206.681 C 182.927 206.835,182.877 206.926,182.660 206.883 C 181.707 206.690,181.235 206.964,180.871 207.922 C 180.618 208.590,180.279 208.869,179.900 208.724 C 179.519 208.578,179.240 208.814,179.090 209.411 C 178.964 209.912,178.253 210.896,177.509 211.597 C 176.766 212.298,176.158 213.029,176.158 213.222 C 176.158 213.414,175.910 213.476,175.606 213.360 C 175.303 213.243,174.921 213.365,174.757 213.630 C 174.553 213.961,174.624 214.010,174.983 213.789 C 175.306 213.589,175.252 213.827,174.842 214.413 C 174.477 214.935,173.873 215.363,173.499 215.365 C 173.126 215.368,172.756 215.724,172.678 216.158 C 172.599 216.591,172.354 217.123,172.134 217.340 C 171.864 217.606,171.826 217.414,172.016 216.749 C 172.290 215.792,172.281 215.786,171.679 216.552 C 171.110 217.275,171.059 216.672,171.047 209.187 L 171.034 201.034 172.826 200.765 C 173.811 200.617,174.520 200.399,174.402 200.280 C 173.747 199.626,175.483 198.751,177.112 198.913 C 178.387 199.040,178.834 198.947,178.816 198.558 C 178.734 196.764,178.843 196.679,180.906 196.923 C 182.004 197.053,182.866 197.001,182.830 196.806 C 182.644 195.810,182.951 195.157,183.824 194.690 C 184.355 194.405,184.754 193.988,184.710 193.763 C 184.666 193.538,185.118 193.110,185.714 192.813 C 186.310 192.515,186.798 192.012,186.798 191.693 C 186.798 191.374,187.241 190.945,187.783 190.739 C 188.386 190.510,188.768 190.055,188.768 189.566 C 188.768 188.859,189.375 188.553,190.443 188.722 C 190.606 188.747,190.718 188.635,190.692 188.473 C 190.441 186.882,190.772 186.326,191.823 186.570 C 192.599 186.751,192.742 186.713,192.326 186.437 C 191.828 186.106,191.841 186.016,192.423 185.793 C 192.795 185.650,192.995 185.364,192.867 185.158 C 192.369 184.353,193.113 182.940,194.184 182.655 C 194.782 182.496,195.042 182.282,194.762 182.179 C 194.373 182.036,194.360 181.863,194.707 181.445 C 194.957 181.143,195.061 180.634,194.938 180.313 C 194.815 179.992,194.971 179.236,195.286 178.633 C 195.600 178.030,195.858 177.797,195.860 178.114 C 195.862 178.578,195.997 178.556,196.552 178.001 C 197.155 177.398,197.167 177.265,196.650 176.938 C 196.325 176.732,196.242 176.561,196.465 176.558 C 196.689 176.554,196.884 175.975,196.899 175.271 C 196.949 172.935,197.321 171.271,197.832 171.100 C 198.158 170.992,198.226 171.111,198.024 171.438 C 197.817 171.773,197.867 171.848,198.172 171.659 C 198.426 171.502,198.506 171.168,198.350 170.916 C 197.862 170.125,197.941 169.064,198.490 169.064 C 198.813 169.064,199.015 168.600,199.015 167.859 C 199.015 166.999,198.873 166.738,198.522 166.949 C 198.187 167.150,198.203 167.031,198.570 166.578 C 199.029 166.013,199.029 165.907,198.570 165.880 C 198.171 165.857,198.158 165.797,198.522 165.650 C 198.894 165.500,199.015 163.434,199.015 157.209 L 199.015 148.966 200.230 148.966 C 201.028 148.966,201.388 149.135,201.279 149.458 M175.172 169.460 C 174.689 170.241,175.422 171.008,176.193 170.527 C 176.607 170.268,176.946 169.943,176.946 169.803 C 176.946 169.403,175.392 169.102,175.172 169.460 M165.649 173.309 C 165.308 173.526,165.332 173.795,165.744 174.358 C 166.359 175.199,166.560 175.134,166.761 174.031 C 166.910 173.209,166.365 172.855,165.649 173.309 M215.677 193.729 C 215.033 194.217,215.065 194.262,216.059 194.273 C 216.655 194.280,217.143 194.463,217.143 194.680 C 217.143 195.190,243.033 195.223,243.218 194.714 C 243.296 194.500,244.187 194.520,245.411 194.764 C 246.544 194.990,247.375 195.331,247.257 195.522 C 247.029 195.892,248.264 197.321,248.642 197.123 C 249.016 196.927,249.328 199.103,249.225 201.190 C 249.112 203.503,248.724 204.926,248.207 204.926 C 248.002 204.926,247.968 204.704,248.131 204.433 C 248.322 204.116,248.184 204.138,247.742 204.497 C 247.365 204.803,247.204 205.158,247.384 205.285 C 247.673 205.490,247.744 206.333,247.494 206.601 C 247.444 206.655,247.352 207.320,247.291 208.079 C 247.229 208.837,247.159 209.610,247.136 209.796 C 247.113 209.982,246.818 210.028,246.482 209.899 C 246.146 209.770,245.971 209.827,246.094 210.027 C 246.218 210.226,246.154 210.491,245.953 210.615 C 245.752 210.739,245.635 211.150,245.694 211.529 C 245.752 211.907,245.652 212.313,245.472 212.431 C 245.291 212.549,245.110 213.583,245.070 214.729 C 245.010 216.425,244.826 216.925,244.086 217.410 C 243.381 217.872,243.211 218.285,243.330 219.249 C 243.416 219.944,243.219 220.906,242.883 221.428 C 242.553 221.942,242.479 222.242,242.718 222.094 C 242.957 221.946,243.153 222.010,243.153 222.235 C 243.153 222.745,241.378 223.222,240.804 222.867 C 240.572 222.723,240.475 222.453,240.590 222.267 C 240.705 222.081,240.474 221.825,240.077 221.699 C 239.679 221.573,238.959 220.935,238.475 220.281 C 237.991 219.627,237.427 219.195,237.221 219.323 C 237.016 219.450,236.847 219.353,236.847 219.108 C 236.847 218.594,235.680 217.340,235.201 217.340 C 235.023 217.340,234.921 217.194,234.975 217.017 C 235.030 216.839,234.760 216.518,234.376 216.303 C 233.992 216.088,233.788 215.734,233.923 215.516 C 234.061 215.292,233.850 215.174,233.439 215.245 C 233.010 215.318,232.751 215.162,232.812 214.866 C 232.868 214.589,232.647 214.260,232.321 214.135 C 231.995 214.010,231.814 213.769,231.919 213.599 C 232.024 213.430,231.806 213.315,231.434 213.345 C 230.963 213.383,230.755 213.100,230.748 212.414 C 230.741 211.628,230.539 211.428,229.754 211.428 C 229.166 211.427,228.747 211.189,228.715 210.836 C 228.686 210.512,228.642 210.025,228.617 209.754 C 228.592 209.483,228.153 209.261,227.641 209.261 C 226.861 209.261,226.741 209.102,226.899 208.276 C 227.068 207.390,226.959 207.291,225.816 207.291 C 224.657 207.291,224.567 207.204,224.792 206.305 C 225.014 205.424,224.919 205.320,223.896 205.320 C 223.070 205.320,222.693 205.093,222.538 204.503 C 222.421 204.053,221.957 203.589,221.507 203.472 C 221.057 203.354,220.690 203.017,220.690 202.722 C 220.690 202.427,220.246 201.895,219.704 201.540 C 219.163 201.185,218.719 200.645,218.719 200.339 C 218.719 200.033,218.276 199.615,217.734 199.409 C 217.192 199.203,216.749 198.759,216.749 198.424 C 216.749 198.088,216.295 197.640,215.740 197.429 C 215.185 197.218,214.841 196.868,214.975 196.651 C 215.109 196.434,215.012 196.256,214.759 196.256 C 214.507 196.256,214.401 195.992,214.525 195.670 C 214.649 195.347,214.623 195.102,214.469 195.125 C 213.571 195.259,213.202 194.967,213.202 194.122 C 213.202 193.032,213.646 192.795,215.247 193.030 C 216.289 193.183,216.323 193.238,215.677 193.729 M149.754 194.680 C 149.754 194.897,149.576 195.074,149.360 195.074 C 149.102 195.074,148.966 202.365,148.966 216.158 C 148.966 234.636,149.039 237.241,149.557 237.241 C 149.885 237.241,150.148 237.592,150.148 238.030 C 150.148 238.515,149.883 238.820,149.458 238.824 C 148.869 238.829,148.854 238.885,149.360 239.212 C 149.861 239.536,149.842 239.595,149.238 239.600 C 148.846 239.603,148.608 239.741,148.710 239.906 C 148.983 240.348,148.071 241.379,147.407 241.379 C 147.092 241.379,146.729 241.822,146.601 242.363 C 146.452 242.997,146.095 243.348,145.598 243.349 C 145.136 243.349,144.826 243.620,144.823 244.024 C 144.820 244.395,144.573 244.927,144.273 245.207 C 143.862 245.588,143.796 245.592,144.005 245.222 C 144.359 244.594,143.755 244.580,143.133 245.202 C 142.510 245.825,142.524 246.433,143.153 246.056 C 143.510 245.841,143.502 245.937,143.124 246.403 C 142.837 246.757,142.378 246.961,142.103 246.855 C 141.829 246.750,141.377 246.938,141.099 247.273 C 140.686 247.770,140.689 247.882,141.114 247.882 C 141.529 247.882,141.535 247.982,141.147 248.370 C 140.879 248.638,140.356 248.860,139.985 248.862 C 139.610 248.865,139.308 249.172,139.306 249.552 C 139.304 249.929,138.875 250.536,138.354 250.901 C 137.768 251.311,137.530 251.365,137.730 251.042 C 137.951 250.683,137.901 250.612,137.571 250.816 C 137.306 250.980,137.180 251.352,137.292 251.642 C 137.413 251.959,137.029 252.376,136.329 252.685 C 135.688 252.969,135.243 253.408,135.340 253.661 C 135.674 254.533,133.008 255.369,129.896 255.369 L 126.906 255.369 126.803 225.123 L 126.700 194.877 137.833 194.987 C 145.279 195.061,148.966 194.963,148.966 194.692 C 148.966 194.468,149.143 194.286,149.360 194.286 C 149.576 194.286,149.754 194.463,149.754 194.680 M202.359 204.453 C 202.904 204.927,203.350 205.465,203.350 205.648 C 203.350 205.832,203.793 206.184,204.335 206.431 C 204.996 206.732,205.320 207.198,205.320 207.847 C 205.320 208.610,205.550 208.841,206.404 208.939 C 207.180 209.029,207.523 209.316,207.614 209.951 C 207.683 210.438,207.984 210.837,208.283 210.837 C 209.009 210.837,211.192 213.178,211.473 214.257 C 211.596 214.729,211.944 215.210,212.246 215.326 C 212.548 215.442,212.697 215.791,212.577 216.103 C 212.458 216.414,212.549 216.786,212.781 216.929 C 213.013 217.072,213.202 216.989,213.202 216.744 C 213.202 216.486,213.463 216.560,213.821 216.918 C 214.162 217.258,214.605 217.537,214.806 217.537 C 215.008 217.537,215.172 217.725,215.172 217.954 C 215.172 218.184,214.951 218.238,214.680 218.076 C 214.341 217.872,214.355 217.987,214.724 218.442 C 215.020 218.807,215.377 219.034,215.517 218.947 C 215.837 218.749,216.766 219.462,217.530 220.493 L 218.114 221.281 217.136 220.493 L 216.158 219.704 216.911 220.594 C 217.325 221.083,217.857 221.441,218.093 221.390 C 218.651 221.269,220.899 223.516,220.778 224.074 C 220.726 224.310,221.084 224.842,221.574 225.257 L 222.463 226.010 221.675 225.031 L 220.887 224.053 221.675 224.637 C 222.706 225.401,223.419 226.330,223.221 226.651 C 223.134 226.791,223.361 227.148,223.725 227.443 C 224.181 227.813,224.295 227.826,224.092 227.488 C 223.928 227.215,223.986 226.995,224.223 226.995 C 224.458 226.995,224.757 227.531,224.888 228.186 C 225.019 228.840,225.284 229.473,225.476 229.592 C 225.668 229.711,225.731 229.961,225.616 230.148 C 225.500 230.335,225.586 230.599,225.806 230.735 C 226.027 230.871,226.207 230.800,226.207 230.577 C 226.207 230.355,226.472 230.274,226.796 230.398 C 227.120 230.523,227.287 230.783,227.167 230.977 C 227.047 231.171,227.131 231.330,227.354 231.330 C 227.576 231.330,227.645 231.625,227.507 231.986 C 227.347 232.402,227.411 232.545,227.681 232.379 C 228.240 232.033,229.418 232.494,229.137 232.948 C 229.017 233.142,229.107 233.300,229.336 233.300 C 229.566 233.300,229.709 233.518,229.655 233.784 C 229.601 234.050,229.958 234.328,230.449 234.403 C 230.940 234.478,231.240 234.704,231.116 234.905 C 230.991 235.106,231.067 235.271,231.284 235.271 C 231.501 235.271,231.613 235.613,231.532 236.031 C 231.422 236.604,231.573 236.755,232.146 236.645 C 232.564 236.564,232.906 236.676,232.906 236.893 C 232.906 237.110,233.071 237.186,233.272 237.062 C 233.474 236.937,233.699 237.237,233.774 237.728 C 233.849 238.219,234.128 238.576,234.394 238.522 C 234.659 238.468,234.877 238.611,234.877 238.841 C 234.877 239.071,235.042 239.156,235.244 239.032 C 235.445 238.907,235.722 238.985,235.858 239.205 C 235.994 239.426,235.905 239.606,235.660 239.606 C 235.407 239.606,235.487 239.879,235.848 240.239 C 236.361 240.753,236.388 240.984,235.987 241.466 C 235.716 241.793,235.474 242.351,235.450 242.705 C 235.425 243.060,235.375 243.837,235.338 244.433 L 235.271 245.517 203.172 245.517 L 171.074 245.517 170.956 239.598 C 170.839 233.766,171.094 231.330,171.822 231.330 C 172.025 231.330,172.087 231.640,171.959 232.020 C 171.802 232.485,171.941 232.420,172.388 231.822 C 172.752 231.334,172.941 230.758,172.807 230.541 C 172.674 230.325,172.826 230.148,173.146 230.148 C 173.466 230.148,173.817 230.369,173.926 230.640 C 174.036 230.911,174.139 230.734,174.156 230.246 C 174.173 229.759,174.384 229.360,174.623 229.360 C 174.863 229.360,174.958 229.094,174.833 228.768 C 174.695 228.408,174.832 228.177,175.185 228.177 C 175.503 228.177,175.764 228.362,175.764 228.587 C 175.764 228.823,175.995 228.781,176.311 228.488 C 176.674 228.152,176.719 227.893,176.444 227.720 C 176.179 227.554,176.278 227.213,176.721 226.770 C 177.164 226.327,177.505 226.228,177.671 226.493 C 177.843 226.768,178.103 226.723,178.439 226.360 C 178.732 226.045,178.774 225.813,178.538 225.813 C 178.312 225.813,178.128 225.552,178.128 225.234 C 178.128 224.881,178.359 224.744,178.719 224.882 C 179.044 225.007,179.310 224.913,179.310 224.673 C 179.310 224.433,179.709 224.222,180.197 224.205 C 180.685 224.188,180.862 224.085,180.591 223.975 C 180.320 223.866,180.099 223.515,180.099 223.195 C 180.099 222.875,180.276 222.723,180.492 222.857 C 180.708 222.990,181.285 222.802,181.773 222.437 C 182.371 221.991,182.435 221.851,181.970 222.008 C 181.591 222.136,181.281 222.146,181.281 222.028 C 181.281 221.584,182.292 220.830,182.703 220.967 C 182.939 221.046,183.381 220.804,183.685 220.430 C 184.046 219.985,184.067 219.852,183.744 220.046 C 183.473 220.209,183.251 220.154,183.251 219.925 C 183.251 219.695,183.528 219.507,183.866 219.507 C 184.204 219.507,184.372 219.332,184.239 219.118 C 184.107 218.904,184.245 218.823,184.547 218.939 C 184.849 219.054,185.345 218.841,185.651 218.464 C 186.010 218.022,186.033 217.884,185.714 218.076 C 185.443 218.238,185.222 218.184,185.222 217.954 C 185.222 217.725,185.498 217.537,185.836 217.537 C 186.200 217.537,186.336 217.352,186.169 217.082 C 185.990 216.791,186.062 216.734,186.370 216.925 C 186.676 217.114,186.930 216.921,187.068 216.394 C 187.187 215.939,187.540 215.567,187.852 215.567 C 188.165 215.567,188.309 215.385,188.171 215.163 C 188.034 214.941,188.157 214.808,188.444 214.867 C 188.731 214.927,188.916 214.738,188.856 214.449 C 188.795 214.159,189.104 213.829,189.541 213.714 C 189.978 213.600,190.236 213.345,190.114 213.147 C 189.992 212.950,190.127 212.837,190.414 212.897 C 190.701 212.956,190.887 212.770,190.828 212.483 C 190.768 212.196,190.901 212.073,191.123 212.211 C 191.345 212.348,191.527 212.205,191.527 211.892 C 191.527 211.579,191.900 211.226,192.355 211.107 C 192.882 210.969,193.075 210.715,192.885 210.409 C 192.695 210.101,192.752 210.029,193.043 210.209 C 193.312 210.375,193.498 210.240,193.498 209.875 C 193.498 209.538,193.685 209.261,193.915 209.261 C 194.144 209.261,194.199 209.483,194.036 209.754 C 193.845 210.072,193.982 210.050,194.425 209.691 C 194.802 209.385,195.015 208.888,194.899 208.586 C 194.784 208.285,194.864 208.146,195.078 208.279 C 195.293 208.411,195.468 208.243,195.468 207.905 C 195.468 207.567,195.656 207.291,195.885 207.291 C 196.115 207.291,196.169 207.512,196.007 207.783 C 195.813 208.106,195.945 208.086,196.391 207.724 C 196.765 207.421,197.006 206.979,196.927 206.742 C 196.790 206.331,197.545 205.320,197.989 205.320 C 198.106 205.320,198.097 205.631,197.969 206.010 C 197.805 206.493,197.930 206.440,198.382 205.834 C 198.738 205.359,198.982 204.760,198.923 204.504 C 198.865 204.249,199.084 203.959,199.409 203.862 C 199.877 203.721,199.891 203.760,199.474 204.053 C 199.048 204.353,199.066 204.467,199.573 204.662 C 200.006 204.828,200.197 204.675,200.197 204.160 C 200.197 203.216,201.072 203.335,202.359 204.453 M254.602 258.522 C 254.799 258.522,255.072 258.966,255.208 259.507 C 255.364 260.130,255.733 260.493,256.210 260.493 C 256.731 260.493,257.038 260.853,257.198 261.653 C 257.356 262.444,257.698 262.852,258.272 262.934 C 258.781 263.007,259.161 263.386,259.233 263.896 C 259.314 264.463,259.721 264.811,260.482 264.963 C 261.134 265.094,261.717 265.521,261.860 265.974 C 261.997 266.405,262.455 266.867,262.877 267.001 C 263.300 267.136,263.645 267.457,263.645 267.715 C 263.645 267.973,264.000 268.406,264.433 268.677 C 264.867 268.948,265.222 269.592,265.222 270.108 C 265.222 270.782,265.501 271.118,266.207 271.295 C 266.749 271.431,267.192 271.727,267.192 271.952 C 267.192 272.177,266.970 272.229,266.700 272.066 C 266.361 271.862,266.375 271.977,266.744 272.432 C 267.040 272.797,267.439 272.998,267.631 272.879 C 267.823 272.760,267.980 272.861,267.980 273.103 C 267.980 273.346,268.138 273.446,268.331 273.327 C 268.824 273.023,270.057 275.018,269.796 275.697 C 269.678 276.004,269.786 276.256,270.036 276.256 C 270.841 276.256,272.267 277.888,272.053 278.564 C 271.876 279.121,271.905 279.129,272.264 278.621 C 272.738 277.951,274.973 278.993,274.778 279.793 C 274.724 280.015,274.852 280.197,275.062 280.197 C 275.271 280.197,275.341 280.463,275.216 280.788 C 275.015 281.314,275.453 281.564,276.343 281.430 C 276.599 281.391,277.650 283.019,277.516 283.247 C 277.486 283.299,277.622 283.742,277.819 284.232 L 278.177 285.123 278.202 284.213 C 278.216 283.702,278.402 283.412,278.627 283.551 C 278.847 283.687,278.934 283.949,278.821 284.133 C 278.707 284.318,278.925 284.780,279.307 285.162 C 279.688 285.543,279.956 285.912,279.901 285.982 C 279.847 286.051,279.817 286.330,279.834 286.601 C 279.857 286.967,279.914 286.973,280.057 286.623 C 280.162 286.364,280.502 286.250,280.811 286.369 C 281.121 286.488,281.277 286.744,281.157 286.938 C 281.037 287.132,281.116 287.291,281.333 287.291 C 281.551 287.291,281.663 287.628,281.584 288.041 C 281.470 288.634,281.642 288.769,282.404 288.685 C 283.744 288.538,284.003 289.182,282.790 289.643 C 282.156 289.884,281.868 290.232,282.006 290.590 C 282.332 291.441,277.339 291.737,265.674 291.557 C 260.228 291.472,255.723 291.550,255.663 291.729 C 255.604 291.908,255.184 292.083,254.732 292.117 C 254.171 292.159,253.963 292.389,254.081 292.837 C 254.214 293.349,254.019 293.469,253.200 293.379 C 252.621 293.316,252.252 293.368,252.380 293.496 C 252.508 293.624,252.302 294.084,251.922 294.519 C 251.542 294.953,251.446 295.183,251.707 295.030 C 252.041 294.835,252.021 295.066,251.640 295.800 C 251.341 296.376,251.190 297.089,251.304 297.386 C 251.417 297.682,251.226 298.034,250.878 298.167 C 250.531 298.300,250.246 298.667,250.246 298.982 C 250.246 299.297,250.052 299.434,249.813 299.286 C 249.499 299.092,249.499 299.241,249.814 299.830 C 250.068 300.305,250.099 300.734,249.888 300.864 C 249.690 300.987,249.576 301.530,249.636 302.071 C 249.695 302.612,249.591 303.054,249.404 303.054 C 248.943 303.054,248.969 318.691,249.431 319.555 C 249.832 320.305,249.306 321.555,248.801 321.051 C 248.633 320.883,248.721 320.606,248.996 320.436 C 249.697 320.003,248.768 319.341,247.586 319.431 C 246.909 319.482,246.700 319.289,246.700 318.610 C 246.700 317.980,246.399 317.646,245.668 317.462 C 245.100 317.320,244.739 317.100,244.866 316.973 C 245.239 316.600,244.323 315.209,243.816 315.380 C 243.559 315.466,243.129 315.014,242.858 314.376 C 242.543 313.632,242.165 313.293,241.805 313.431 C 241.436 313.573,241.101 313.241,240.832 312.468 C 240.554 311.672,240.197 311.328,239.731 311.408 C 239.234 311.494,238.980 311.195,238.827 310.345 C 238.709 309.695,238.482 309.207,238.321 309.261 C 237.500 309.539,236.917 309.276,236.725 308.542 C 236.608 308.093,236.154 307.631,235.717 307.517 C 235.251 307.395,234.822 306.854,234.680 306.209 C 234.511 305.437,234.240 305.156,233.771 305.266 C 233.372 305.359,232.793 304.985,232.334 304.337 C 231.724 303.477,231.703 303.364,232.235 303.792 C 232.604 304.090,232.906 304.153,232.906 303.933 C 232.906 303.435,231.779 302.974,231.294 303.273 C 231.097 303.395,230.936 303.022,230.936 302.444 C 230.936 301.657,230.783 301.452,230.324 301.628 C 229.953 301.771,229.814 301.700,229.970 301.447 C 230.123 301.200,229.931 301.082,229.498 301.156 C 228.993 301.242,228.730 301.008,228.643 300.394 C 228.573 299.906,228.302 299.507,228.040 299.507 C 227.335 299.507,226.324 298.176,226.530 297.518 C 226.628 297.203,226.573 297.073,226.406 297.228 C 225.827 297.766,224.545 296.723,224.763 295.891 C 224.936 295.228,224.823 295.138,224.058 295.330 C 223.321 295.515,223.056 295.339,222.671 294.410 C 222.335 293.600,221.973 293.304,221.442 293.406 C 221.028 293.486,220.690 293.371,220.690 293.151 C 220.690 291.538,222.242 291.585,166.250 291.505 C 115.798 291.433,112.976 291.392,112.880 290.737 C 112.824 290.357,112.940 290.145,113.138 290.268 C 113.336 290.390,113.498 290.242,113.498 289.939 C 113.498 289.636,113.941 289.186,114.483 288.939 C 115.025 288.692,115.468 288.220,115.468 287.890 C 115.468 287.560,115.656 287.291,115.885 287.291 C 116.115 287.291,116.169 287.512,116.007 287.783 C 115.813 288.106,115.945 288.086,116.391 287.724 C 116.765 287.421,117.006 286.979,116.927 286.742 C 116.848 286.506,117.007 286.089,117.280 285.816 C 117.919 285.177,118.360 285.175,117.977 285.813 C 117.786 286.131,117.923 286.109,118.366 285.750 C 118.743 285.444,118.951 284.935,118.830 284.618 C 118.670 284.202,118.821 284.098,119.374 284.243 C 119.920 284.386,120.076 284.282,119.922 283.880 C 119.791 283.539,119.919 283.363,120.247 283.432 C 120.557 283.498,120.765 283.252,120.733 282.857 C 120.703 282.478,120.925 282.167,121.226 282.167 C 121.527 282.167,121.776 282.389,121.779 282.660 C 121.784 282.998,121.899 282.973,122.148 282.580 C 122.347 282.266,122.422 281.867,122.315 281.694 C 122.208 281.521,122.328 281.379,122.580 281.379 C 122.833 281.379,122.938 281.113,122.813 280.788 C 122.679 280.438,122.809 280.197,123.132 280.197 C 123.432 280.197,123.737 280.357,123.810 280.552 C 123.882 280.748,124.170 280.659,124.449 280.355 C 124.743 280.036,124.784 279.803,124.548 279.803 C 124.322 279.803,124.138 279.543,124.138 279.224 C 124.138 278.872,124.369 278.734,124.729 278.872 C 125.054 278.997,125.320 278.892,125.320 278.640 C 125.320 278.387,125.462 278.268,125.635 278.374 C 125.807 278.481,126.207 278.406,126.521 278.207 C 126.914 277.958,126.939 277.843,126.601 277.839 C 126.330 277.835,126.108 277.586,126.108 277.285 C 126.108 276.984,126.419 276.762,126.798 276.793 C 127.177 276.823,127.449 276.644,127.403 276.395 C 127.351 276.121,127.662 276.018,128.191 276.134 C 128.899 276.288,128.952 276.243,128.473 275.896 C 126.929 274.778,129.158 274.643,147.258 274.763 C 157.264 274.829,165.244 274.751,164.992 274.590 C 164.686 274.396,164.752 274.296,165.189 274.292 C 165.550 274.288,165.936 274.507,166.046 274.778 C 166.198 275.153,166.340 275.135,166.642 274.701 C 166.893 274.341,166.903 273.879,166.671 273.445 C 166.345 272.836,166.463 272.785,167.720 272.988 C 169.125 273.216,169.134 273.208,169.001 271.913 C 168.919 271.116,169.059 270.544,169.360 270.444 C 169.631 270.353,169.852 270.478,169.852 270.722 C 169.852 271.017,170.034 270.996,170.400 270.656 C 170.796 270.288,170.823 270.069,170.498 269.864 C 170.164 269.653,170.168 269.390,170.514 268.831 C 170.858 268.274,170.863 267.967,170.533 267.637 C 170.289 267.392,170.257 267.192,170.463 267.193 C 219.655 267.267,243.156 267.103,243.184 266.684 C 243.208 266.316,243.259 266.315,243.407 266.679 C 243.675 267.339,245.393 266.526,245.628 265.628 C 245.752 265.155,246.161 264.969,246.975 265.018 C 247.911 265.073,248.241 264.866,248.637 263.972 C 248.908 263.359,249.387 262.857,249.701 262.857 C 250.323 262.857,251.072 261.304,250.730 260.726 C 250.613 260.529,250.900 260.468,251.367 260.591 C 251.952 260.744,252.217 260.633,252.217 260.235 C 252.217 259.918,252.365 259.749,252.545 259.861 C 252.726 259.973,252.874 259.806,252.874 259.490 C 252.874 259.174,252.724 258.916,252.542 258.916 C 252.359 258.916,252.420 258.580,252.677 258.169 C 253.076 257.530,253.223 257.501,253.693 257.972 C 253.996 258.275,254.405 258.522,254.602 258.522 M343.054 310.936 C 361.000 310.936,363.114 310.870,363.530 310.301 C 363.933 309.751,364.069 309.741,364.559 310.230 C 364.941 310.611,366.051 310.799,367.993 310.812 C 369.571 310.822,370.946 310.913,371.048 311.015 C 371.329 311.296,371.343 313.235,371.285 343.552 L 371.232 371.635 344.079 371.620 L 316.926 371.605 317.138 370.797 C 317.254 370.352,317.683 369.781,318.090 369.526 C 318.805 369.081,318.831 368.048,318.817 340.690 C 318.809 325.084,318.806 312.005,318.810 311.626 C 318.815 311.179,319.130 310.932,319.704 310.923 C 320.192 310.917,320.944 310.644,321.375 310.319 C 322.073 309.791,322.206 309.792,322.600 310.331 C 322.988 310.861,325.521 310.936,343.054 310.936 M81.182 341.286 L 81.182 369.655 55.178 369.655 L 29.173 369.655 29.069 341.182 L 28.966 312.709 55.074 312.813 L 81.182 312.917 81.182 341.286 " stroke="none" fill="#fc742c" fill-rule="evenodd"></path><path id="path1" d="" stroke="none" fill="#100742c" fill-rule="evenodd"></path><path id="path2" d="" stroke="none" fill="#100742c" fill-rule="evenodd"></path><path id="path3" d="" stroke="none" fill="#100742c" fill-rule="evenodd"></path><path id="path4" d="" stroke="none" fill="#100742c" fill-rule="evenodd"></path></g></svg>